<mxfile host="app.diagrams.net" agent="Mozilla/5.0 (Windows NT 10.0; Win64; x64; rv:130.0) Gecko/20100101 Firefox/130.0" version="24.7.16">
  <diagram name="Page-1" id="J651Fu25jddHXxL69Par">
    <mxGraphModel dx="1690" dy="980" grid="0" gridSize="10" guides="1" tooltips="1" connect="1" arrows="1" fold="1" page="0" pageScale="1" pageWidth="850" pageHeight="1100" math="0" shadow="0">
      <root>
        <mxCell id="0" />
        <mxCell id="1" parent="0" />
        <mxCell id="nByycbW7MYswIltfpBWE-1" value="&lt;div&gt;Service which needs to be monitored.This service has actuator and custom metric end points setup.&lt;/div&gt;&lt;div&gt;&lt;br&gt;&lt;/div&gt;&lt;div&gt;All end points produce JSON output and the results are periodically written to a file&lt;br&gt;&lt;/div&gt;" style="rounded=0;whiteSpace=wrap;html=1;" vertex="1" parent="1">
          <mxGeometry x="-357" y="-20" width="150" height="262" as="geometry" />
        </mxCell>
        <mxCell id="nByycbW7MYswIltfpBWE-2" value="&lt;div&gt;JSON&amp;nbsp;&lt;/div&gt;&lt;div&gt;JSON&amp;nbsp;&lt;/div&gt;&lt;div&gt;JSON&amp;nbsp;&lt;/div&gt;&lt;div&gt;And more JSON&lt;/div&gt;" style="shape=internalStorage;whiteSpace=wrap;html=1;backgroundOutline=1;" vertex="1" parent="1">
          <mxGeometry x="-12" y="292" width="138" height="119" as="geometry" />
        </mxCell>
        <mxCell id="nByycbW7MYswIltfpBWE-3" value="" style="endArrow=classic;html=1;rounded=0;fontSize=12;startSize=8;endSize=8;curved=1;entryX=0.203;entryY=-0.034;entryDx=0;entryDy=0;entryPerimeter=0;" edge="1" parent="1" target="nByycbW7MYswIltfpBWE-2">
          <mxGeometry width="50" height="50" relative="1" as="geometry">
            <mxPoint x="-204" y="152" as="sourcePoint" />
            <mxPoint x="40" y="308" as="targetPoint" />
          </mxGeometry>
        </mxCell>
        <mxCell id="nByycbW7MYswIltfpBWE-4" value="&lt;div&gt;JSON EATER&lt;/div&gt;&lt;div&gt;&lt;br&gt;&lt;/div&gt;&lt;div&gt;This service is able to consume all JSON data using thymeleaf&lt;br&gt;&lt;/div&gt;&amp;nbsp;and display to the user when needed." style="rounded=0;whiteSpace=wrap;html=1;" vertex="1" parent="1">
          <mxGeometry x="395" y="-12" width="120" height="152" as="geometry" />
        </mxCell>
        <mxCell id="nByycbW7MYswIltfpBWE-5" value="" style="endArrow=classic;startArrow=classic;html=1;rounded=0;fontSize=12;startSize=8;endSize=8;curved=1;" edge="1" parent="1">
          <mxGeometry width="50" height="50" relative="1" as="geometry">
            <mxPoint x="128" y="290" as="sourcePoint" />
            <mxPoint x="391" y="84" as="targetPoint" />
          </mxGeometry>
        </mxCell>
        <mxCell id="nByycbW7MYswIltfpBWE-6" value="Anuj" style="shape=umlActor;verticalLabelPosition=bottom;verticalAlign=top;html=1;outlineConnect=0;" vertex="1" parent="1">
          <mxGeometry x="440" y="289" width="30" height="60" as="geometry" />
        </mxCell>
        <mxCell id="nByycbW7MYswIltfpBWE-7" value="" style="endArrow=classic;startArrow=classic;html=1;rounded=0;fontSize=12;startSize=8;endSize=8;curved=1;" edge="1" parent="1">
          <mxGeometry width="50" height="50" relative="1" as="geometry">
            <mxPoint x="175" y="249" as="sourcePoint" />
            <mxPoint x="225" y="199" as="targetPoint" />
          </mxGeometry>
        </mxCell>
        <mxCell id="nByycbW7MYswIltfpBWE-8" value="" style="endArrow=classic;html=1;rounded=0;fontSize=12;startSize=8;endSize=8;curved=1;" edge="1" parent="1">
          <mxGeometry width="50" height="50" relative="1" as="geometry">
            <mxPoint x="456" y="151" as="sourcePoint" />
            <mxPoint x="456" y="284" as="targetPoint" />
          </mxGeometry>
        </mxCell>
        <mxCell id="nByycbW7MYswIltfpBWE-9" value="&lt;div&gt;My service is doing great,&lt;/div&gt;&lt;div&gt;&amp;nbsp;I am a genius.&lt;/div&gt;" style="ellipse;shape=cloud;whiteSpace=wrap;html=1;" vertex="1" parent="1">
          <mxGeometry x="556" y="177" width="182" height="101" as="geometry" />
        </mxCell>
        <mxCell id="nByycbW7MYswIltfpBWE-10" value="" style="endArrow=classic;startArrow=classic;html=1;rounded=0;fontSize=12;startSize=8;endSize=8;curved=1;entryX=0.13;entryY=0.77;entryDx=0;entryDy=0;entryPerimeter=0;" edge="1" parent="1" target="nByycbW7MYswIltfpBWE-9">
          <mxGeometry width="50" height="50" relative="1" as="geometry">
            <mxPoint x="473" y="301" as="sourcePoint" />
            <mxPoint x="523" y="251" as="targetPoint" />
          </mxGeometry>
        </mxCell>
      </root>
    </mxGraphModel>
  </diagram>
</mxfile>
